<mxfile host="app.diagrams.net" agent="Mozilla/5.0 (Windows NT 10.0; Win64; x64) AppleWebKit/537.36 (KHTML, like Gecko) Chrome/131.0.0.0 Safari/537.36" version="27.0.6">
  <diagram name="Trang-1" id="116jkRwX5s6CJh22BJvT">
    <mxGraphModel grid="1" page="1" gridSize="10" guides="1" tooltips="1" connect="1" arrows="1" fold="1" pageScale="1" pageWidth="827" pageHeight="1169" math="0" shadow="0">
      <root>
        <mxCell id="0" />
        <mxCell id="1" parent="0" />
        <mxCell id="j2FxOxLaAUkMVl4qpWbT-1" value="&lt;p style=&quot;margin:0px;margin-top:4px;text-align:center;&quot;&gt;&lt;i&gt;&amp;lt;&amp;lt;boundary&amp;gt;&amp;gt;&lt;/i&gt;&lt;br&gt;&lt;b&gt;QuanLyLienHeUI&lt;/b&gt;&lt;/p&gt;&lt;hr size=&quot;1&quot;&gt;+ kich nut &quot;Lien he cua khach hang&quot;()&lt;div&gt;+ hien thi danh sach lien he()&lt;/div&gt;&lt;div&gt;+ kich bieu tuong thung rac()&lt;/div&gt;&lt;div&gt;+ hien thi thong bao xac nhan xoa()&lt;/div&gt;&lt;div&gt;+ kich nut &quot;Xoa&quot;()&lt;/div&gt;&lt;div&gt;+ hien thi danh sach lien he va thong bao xoa thanh cong()&lt;/div&gt;&lt;div&gt;+ kich vao nut &quot;Gui&quot;()&lt;/div&gt;&lt;div&gt;+ hien thi man hinh gui email()&lt;/div&gt;&lt;div&gt;+ hien thi danh sach lien he can tim()&lt;br&gt;&lt;p style=&quot;&quot; dir=&quot;auto&quot;&gt;&lt;br&gt;&lt;/p&gt;&lt;p style=&quot;white-space: pre-wrap;&quot; dir=&quot;auto&quot;&gt;&lt;br&gt;&lt;/p&gt;&lt;p style=&quot;white-space: pre-wrap;&quot; dir=&quot;auto&quot;&gt;&lt;br&gt;&lt;/p&gt;&lt;p style=&quot;margin:0px;margin-left:4px;&quot;&gt;&lt;br&gt;&lt;/p&gt;&lt;/div&gt;" style="verticalAlign=top;align=left;overflow=fill;fontSize=12;fontFamily=Helvetica;html=1;rounded=0;shadow=0;comic=0;labelBackgroundColor=none;strokeWidth=1;fillColor=#F2CC8F;strokeColor=#E07A5F;fontColor=#393C56;" vertex="1" parent="1">
          <mxGeometry x="180" y="60" width="320" height="190" as="geometry" />
        </mxCell>
        <mxCell id="j2FxOxLaAUkMVl4qpWbT-2" value="&lt;p style=&quot;margin:0px;margin-top:4px;text-align:center;&quot;&gt;&lt;i&gt;&amp;lt;&amp;lt;Control&amp;gt;&amp;gt;&lt;/i&gt;&lt;br&gt;&lt;b&gt;QuanLyLienHe&lt;/b&gt;&lt;b&gt;Controller&lt;/b&gt;&lt;/p&gt;&lt;hr size=&quot;1&quot;&gt;&lt;div&gt;+ lay thong tin lien he()&lt;/div&gt;&lt;div&gt;+ xoa lien he duoc chon()&lt;/div&gt;&lt;div&gt;+ lay thong tin lien he can tim()&lt;/div&gt;&lt;div&gt;&lt;p style=&quot;white-space: pre-wrap;&quot; dir=&quot;auto&quot;&gt;&lt;br&gt;&lt;/p&gt;&lt;p style=&quot;white-space: pre-wrap;&quot; dir=&quot;auto&quot;&gt;&lt;br&gt;&lt;/p&gt;&lt;/div&gt;" style="verticalAlign=top;align=left;overflow=fill;fontSize=12;fontFamily=Helvetica;html=1;rounded=0;shadow=0;comic=0;labelBackgroundColor=none;strokeWidth=1;fillColor=#F2CC8F;strokeColor=#E07A5F;fontColor=#393C56;" vertex="1" parent="1">
          <mxGeometry x="580" y="76" width="206" height="100" as="geometry" />
        </mxCell>
        <mxCell id="j2FxOxLaAUkMVl4qpWbT-3" value="&lt;b&gt;NguoiQuanTri&lt;/b&gt;" style="shape=umlActor;verticalLabelPosition=bottom;verticalAlign=top;html=1;outlineConnect=0;textShadow=0;labelBorderColor=none;labelBackgroundColor=none;fillColor=#F2CC8F;strokeColor=#E07A5F;fontColor=#393C56;" vertex="1" parent="1">
          <mxGeometry x="50" y="85" width="30" height="60" as="geometry" />
        </mxCell>
        <mxCell id="j2FxOxLaAUkMVl4qpWbT-4" value="" style="endArrow=none;html=1;rounded=0;labelBackgroundColor=none;fontColor=default;strokeColor=#E07A5F;" edge="1" parent="1">
          <mxGeometry relative="1" as="geometry">
            <mxPoint x="90" y="111" as="sourcePoint" />
            <mxPoint x="180" y="110" as="targetPoint" />
          </mxGeometry>
        </mxCell>
        <mxCell id="j2FxOxLaAUkMVl4qpWbT-5" value="1" style="text;html=1;align=center;verticalAlign=middle;resizable=0;points=[];autosize=1;strokeColor=none;fillColor=none;labelBackgroundColor=none;fontColor=#393C56;" vertex="1" parent="1">
          <mxGeometry x="550" y="100" width="30" height="30" as="geometry" />
        </mxCell>
        <mxCell id="j2FxOxLaAUkMVl4qpWbT-6" value="" style="endArrow=none;html=1;rounded=0;labelBackgroundColor=none;fontColor=default;exitX=0.133;exitY=0.133;exitDx=0;exitDy=0;exitPerimeter=0;strokeColor=#E07A5F;" edge="1" parent="1" source="j2FxOxLaAUkMVl4qpWbT-8">
          <mxGeometry relative="1" as="geometry">
            <mxPoint x="694.0000000000001" y="180" as="sourcePoint" />
            <mxPoint x="694" y="240" as="targetPoint" />
          </mxGeometry>
        </mxCell>
        <mxCell id="j2FxOxLaAUkMVl4qpWbT-7" value="&lt;p style=&quot;margin:0px;margin-top:4px;text-align:center;&quot;&gt;&lt;i&gt;&amp;lt;&amp;lt;entity&amp;gt;&lt;/i&gt;&lt;br&gt;&lt;b&gt;Contact&lt;/b&gt;&lt;/p&gt;&lt;hr size=&quot;1&quot;&gt;&lt;p style=&quot;&quot; dir=&quot;auto&quot;&gt;&lt;span style=&quot;white-space: pre-wrap;&quot;&gt;+ id&lt;/span&gt;&lt;br style=&quot;white-space: pre-wrap;&quot;&gt;&lt;span style=&quot;white-space: pre-wrap;&quot;&gt;+ email&lt;/span&gt;&lt;br style=&quot;white-space: pre-wrap;&quot;&gt;&lt;span style=&quot;white-space: pre-wrap;&quot;&gt;+ title&lt;/span&gt;&lt;br style=&quot;white-space: pre-wrap;&quot;&gt;&lt;span style=&quot;white-space: pre-wrap;&quot;&gt;+ content&lt;/span&gt;&lt;br style=&quot;white-space: pre-wrap;&quot;&gt;&lt;span style=&quot;white-space: pre-wrap;&quot;&gt;+ name&lt;/span&gt;&lt;br style=&quot;white-space: pre-wrap;&quot;&gt;&lt;span style=&quot;white-space: pre-wrap;&quot;&gt;+ date&lt;/span&gt;&lt;/p&gt;&lt;hr size=&quot;1&quot;&gt;&lt;div&gt;&lt;div&gt;&lt;div&gt;&lt;div&gt;+ getId()&lt;/div&gt;&lt;div&gt;+ setId()&lt;/div&gt;&lt;div&gt;+ getEmail()&lt;/div&gt;&lt;div&gt;+ setEmail()&lt;/div&gt;&lt;div&gt;+ getTitle()&lt;/div&gt;&lt;div&gt;+ setTitle()&lt;/div&gt;&lt;div&gt;+ getName()&lt;/div&gt;&lt;div&gt;+ setName()&lt;/div&gt;&lt;div&gt;+ getDate()&lt;/div&gt;&lt;div&gt;+ setDate()&lt;/div&gt;&lt;div&gt;+ createContact()&lt;/div&gt;&lt;div&gt;+ getContact()&lt;/div&gt;&lt;div&gt;+ getContactById()&lt;/div&gt;&lt;div&gt;&lt;span style=&quot;background-color: transparent;&quot;&gt;+ deleteContactById()&lt;/span&gt;&lt;span style=&quot;background-color: transparent; color: light-dark(rgb(0, 0, 0), rgb(255, 255, 255));&quot;&gt;&amp;nbsp;&lt;/span&gt;&lt;/div&gt;&lt;/div&gt;&lt;/div&gt;&lt;/div&gt;&lt;div&gt;&lt;p style=&quot;white-space: pre-wrap;&quot; dir=&quot;auto&quot;&gt;&lt;br&gt;&lt;/p&gt;&lt;/div&gt;" style="verticalAlign=top;align=left;overflow=fill;fontSize=12;fontFamily=Helvetica;html=1;rounded=0;shadow=0;comic=0;labelBackgroundColor=none;strokeWidth=1;fillColor=#F2CC8F;strokeColor=#E07A5F;fontColor=#393C56;" vertex="1" parent="1">
          <mxGeometry x="609" y="240" width="195" height="370" as="geometry" />
        </mxCell>
        <mxCell id="j2FxOxLaAUkMVl4qpWbT-8" value="1" style="text;html=1;align=center;verticalAlign=middle;resizable=0;points=[];autosize=1;strokeColor=none;fillColor=none;labelBackgroundColor=none;fontColor=#393C56;" vertex="1" parent="1">
          <mxGeometry x="690" y="176" width="30" height="30" as="geometry" />
        </mxCell>
        <mxCell id="j2FxOxLaAUkMVl4qpWbT-10" value="1" style="text;html=1;align=center;verticalAlign=middle;resizable=0;points=[];autosize=1;strokeColor=none;fillColor=none;labelBackgroundColor=none;fontColor=#393C56;" vertex="1" parent="1">
          <mxGeometry x="500" y="100" width="30" height="30" as="geometry" />
        </mxCell>
        <mxCell id="j2FxOxLaAUkMVl4qpWbT-11" value="n" style="text;html=1;align=center;verticalAlign=middle;resizable=0;points=[];autosize=1;strokeColor=none;fillColor=none;labelBackgroundColor=none;fontColor=#393C56;" vertex="1" parent="1">
          <mxGeometry x="691.5" y="210" width="30" height="30" as="geometry" />
        </mxCell>
        <mxCell id="j2FxOxLaAUkMVl4qpWbT-12" value="" style="endArrow=none;html=1;rounded=0;labelBackgroundColor=none;fontColor=default;strokeColor=#E07A5F;" edge="1" parent="1">
          <mxGeometry relative="1" as="geometry">
            <mxPoint x="500" y="126.5" as="sourcePoint" />
            <mxPoint x="580" y="126" as="targetPoint" />
          </mxGeometry>
        </mxCell>
      </root>
    </mxGraphModel>
  </diagram>
</mxfile>
